<svg xmlns="http://www.w3.org/2000/svg" viewBox="0 0 2952 2320.97"><defs><style>.cls-1{fill:#d87e2e;}.cls-2{font-size:361.42px;}.cls-2,.cls-3{fill:#fff;font-family:Poppins-Bold, Poppins;font-weight:700;}.cls-3{font-size:194.18px;}</style></defs><g id="Layer_2" data-name="Layer 2"><g id="Layer_1-2" data-name="Layer 1"><path class="cls-1" d="M2597.67,511.64c-78.86,8.19-160.26,15-239.43,21.41-35.94,2.8-84.67,6.61-120.59,9.31l25.63-34.15c48.34-64.76,106.7-141.53,155.81-205.71l-4.74,30c-35.06-80.18-96-149.1-172.22-191.9A430.46,430.46,0,0,0,2074,87.81l27.79-6.11a1209.15,1209.15,0,0,1-161.35,87.07c-132.86,59.45-276.37,95.54-421.66,105.22-37.17,2.66-76.48,3.18-113.75,2.45-7.6.05-25.78.42-33.2.38-5.71-.09-17.32-.21-23-.3-191.62-3.59-382-53.42-551.43-142.72-30.41-16.07-60.28-33.36-89.16-52l27.87,6.13A431.56,431.56,0,0,0,580,134.2c-73.49,38-134,99.66-172,173.13q-6.46,12.38-12.13,25.2L391,302.42C426.19,348,473.4,410.63,508.1,456.53c15.62,21.26,49.17,65.24,64.48,86l-41-3.14c-79.1-6.08-160.53-12.55-239.46-19.9-26.6-2.47-53.2-5-79.79-7.8,26.7-1.33,53.4-2.44,80.09-3.47,66.08-2.49,133.93-4.48,200.17-6l40-.9-15.21,31.2c-58.45-64.35-126-139.27-183.7-204.25,15.63-46.56,36.62-91.44,65.32-131.48C476.9,85.17,605.42,14.89,739.85,0a1241,1241,0,0,0,410.51,156.36,1207.54,1207.54,0,0,0,210.9,20.42c12.27.29,31.29-.18,43.75-.33l22.16.34c109.73,1.19,219.73-13.16,325.71-41.56a1255.58,1255.58,0,0,0,209.47-77.18c36.83-17.41,72.87-37,107.84-57.92,164,18.4,310.64,115.53,381.28,266.06,9.6,19.78,17.39,41.23,24.68,61.95l-11,12.38c-38.39,42.91-90.53,101.48-129.23,144.07l-43.37,47.77-15.13-31c106,2.32,214.46,5.24,320.28,10.31Z"/><path class="cls-1" d="M2645.48,1614.15c-86,11.09-172.33,19.83-258.63,28l12.67-5.28q-84.46,89.7-175.72,172.88c-139,126.8-289.24,242.09-447.21,344.44q-138.71,89.88-285.46,166.7c-14,0-36.65,0-50.65,0l-11-5.77a3545.87,3545.87,0,0,1-434.8-271C828.5,1922.82,673,1786.85,532,1637l12.73,5.3c-64.7-6.12-129.41-12.73-194-20.2-21.55-2.52-43.1-5.1-64.62-7.95,43.3-2.76,86.65-4.75,130-6.5q68.06-2.75,136.09-4.52l6.57,5.47q160.49,133.68,329.6,255.08,161.83,115.69,332.15,218.74,125.73,75.82,255.62,144.33l-23.3-5.76,25.93,0-23.29,5.76a5030.61,5030.61,0,0,0,474.11-284c153.54-103.6,300.89-215.44,443.32-334.14l6.54-5.44,6.13.17c86.65,2.44,173.37,5.42,259.92,10.75Z"/><path class="cls-1" d="M21,1166,310.07,750.15V747H47.41V633.4h440.4v79.34L205,1123.35v3.24h287.3v113.57H21Z"/><path class="cls-1" d="M939.59,983.48H716.32v144.3H965.91v112.38H579.14V633.4H952.93V745.77H716.32v126.4H939.59Z"/><path class="cls-1" d="M1059.86,1240.16V633.4h159.83l126,222.56c36.33,63.6,71.79,139.57,99.14,208.12l2.34-.29c-8.43-80.23-11.06-161.79-11.06-253.49V633.4H1562v606.76H1418.31l-130.07-233.67c-36.18-65.46-76-143.22-105.41-214.36l-3,.29c4.24,80.4,6,166.25,6,265.35v182.39Z"/><path class="cls-1" d="M1818.2,633.4v606.76H1681V633.4Z"/><path class="cls-1" d="M2054.71,748.57H1891V633.4h467V748.57H2191.89v491.59H2054.71Z"/><path class="cls-1" d="M2568.08,633.4V866.77H2794.3V633.4h137.18v606.76H2794.3V986.25H2568.08v253.91H2430.9V633.4Z"/><text class="cls-2" transform="translate(0 1548.26) scale(0.74 1)">PROTECTIVE SERVICES</text><text class="cls-3" transform="matrix(0.49, 0.33, -0.56, 0.83, 893.69, 1846.81)">PRIVATE</text><text class="cls-3" transform="matrix(0.5, -0.3, 0.52, 0.85, 1590.91, 2116.33)">SECURITY</text></g></g></svg>