<svg width="107" height="107" viewBox="0 0 107 107" fill="none" xmlns="http://www.w3.org/2000/svg">
<rect width="106.78" height="106.78" rx="53.3899" fill="#ED2024"/>
<path d="M54.3616 47.8887C50.8023 47.8887 47.8901 50.8008 47.8901 54.3602C47.8901 57.9195 50.8023 60.8317 54.3616 60.8317C57.9209 60.8317 60.8331 57.9195 60.8331 54.3602C60.8331 50.8008 57.9209 47.8887 54.3616 47.8887ZM73.7761 47.8887C70.2168 47.8887 67.3046 50.8008 67.3046 54.3602C67.3046 57.9195 70.2168 60.8317 73.7761 60.8317C77.3354 60.8317 80.2476 57.9195 80.2476 54.3602C80.2476 50.8008 77.3354 47.8887 73.7761 47.8887ZM34.9471 47.8887C31.3878 47.8887 28.4756 50.8008 28.4756 54.3602C28.4756 57.9195 31.3878 60.8317 34.9471 60.8317C38.5064 60.8317 41.4186 57.9195 41.4186 54.3602C41.4186 50.8008 38.5064 47.8887 34.9471 47.8887Z" fill="white"/>
</svg>
