<svg width="125" height="125" viewBox="0 0 125 125" fill="none" xmlns="http://www.w3.org/2000/svg">
<path d="M87.4629 30.1719L64.0254 53.6094L71.39 60.974L94.8275 37.5365L109.374 52.0833V15.625H72.916L87.4629 30.1719Z" fill="white"/>
<path d="M85.5327 70.0319C84.5319 69.1223 83.2168 68.6372 81.865 68.679C80.5133 68.7207 79.2306 69.2862 78.2879 70.2559L65.8244 83.0736C62.8244 82.5007 56.7931 80.6205 50.5848 74.4278C44.3765 68.2142 42.4963 62.1673 41.939 59.1882L54.7463 46.7194C55.7172 45.7774 56.2834 44.4945 56.3252 43.1424C56.367 41.7902 55.8811 40.4748 54.9702 39.4746L35.7254 18.3132C34.8142 17.3098 33.5477 16.7012 32.195 16.6166C30.8422 16.532 29.5098 16.9781 28.4806 17.86L17.1838 27.5528C16.2809 28.4532 15.7414 29.6547 15.6681 30.9278C15.59 32.2298 14.1004 63.0736 38.0171 87.0007C58.8817 107.865 85.0171 109.391 92.215 109.391C93.2671 109.391 93.9129 109.36 94.0848 109.35C95.3583 109.278 96.5604 108.738 97.4598 107.834L107.147 96.5267C108.03 95.4982 108.477 94.1662 108.393 92.8134C108.31 91.4607 107.702 90.1939 106.699 89.2819L85.5327 70.0319Z" fill="white"/>
</svg>
