<svg width="209" height="53" viewBox="0 0 209 53" fill="none" xmlns="http://www.w3.org/2000/svg">
<path d="M46.2577 18.3407C46.2355 16.6681 45.9224 15.0122 45.3325 13.447C44.8209 12.1267 44.0396 10.9277 43.0384 9.92654C42.0372 8.92535 40.8382 8.14402 39.5179 7.63245C37.9728 7.05245 36.3405 6.73883 34.6905 6.70495C32.5661 6.61 31.8925 6.5835 26.4998 6.5835C21.107 6.5835 20.4158 6.5835 18.3069 6.70495C16.6576 6.73908 15.0261 7.0527 13.4817 7.63245C12.1612 8.14366 10.962 8.92487 9.96077 9.9261C8.95954 10.9273 8.17833 12.1265 7.66712 13.447C7.08596 14.9909 6.77302 16.6228 6.74183 18.2722C6.64687 20.3988 6.61816 21.0724 6.61816 26.4651C6.61816 31.8579 6.61816 32.5469 6.74183 34.658C6.77496 36.3099 7.08633 37.9396 7.66712 39.4877C8.17919 40.8077 8.96098 42.0064 9.96254 43.0072C10.9641 44.0081 12.1634 44.7889 13.4839 45.3C15.024 45.9033 16.6559 46.2394 18.3091 46.2937C20.4357 46.3887 21.1092 46.4174 26.502 46.4174C31.8947 46.4174 32.586 46.4174 34.6949 46.2937C36.3449 46.2613 37.9773 45.9484 39.5223 45.3685C40.8422 44.8563 42.041 44.0748 43.0421 43.0736C44.0432 42.0725 44.8247 40.8738 45.3369 39.5539C45.9177 38.0081 46.229 36.3783 46.2622 34.7243C46.3571 32.5999 46.3858 31.9263 46.3858 26.5314C46.3814 21.1386 46.3814 20.454 46.2577 18.3407ZM26.4865 36.6632C20.8465 36.6632 16.2774 32.0942 16.2774 26.4541C16.2774 20.814 20.8465 16.245 26.4865 16.245C29.1942 16.245 31.7909 17.3206 33.7055 19.2351C35.6201 21.1497 36.6957 23.7465 36.6957 26.4541C36.6957 29.1617 35.6201 31.7584 33.7055 33.673C31.7909 35.5876 29.1942 36.6632 26.4865 36.6632ZM37.102 18.2479C36.7893 18.2482 36.4796 18.1868 36.1906 18.0673C35.9017 17.9478 35.6391 17.7724 35.418 17.5513C35.1969 17.3302 35.0216 17.0676 34.902 16.7787C34.7825 16.4897 34.7211 16.18 34.7214 15.8673C34.7214 15.5549 34.783 15.2454 34.9025 14.9567C35.0221 14.6681 35.1974 14.4057 35.4183 14.1848C35.6393 13.9638 35.9016 13.7886 36.1903 13.669C36.479 13.5494 36.7884 13.4879 37.1009 13.4879C37.4134 13.4879 37.7228 13.5494 38.0115 13.669C38.3002 13.7886 38.5625 13.9638 38.7834 14.1848C39.0044 14.4057 39.1797 14.6681 39.2992 14.9567C39.4188 15.2454 39.4804 15.5549 39.4804 15.8673C39.4804 17.1835 38.416 18.2479 37.102 18.2479Z" fill="white"/>
<path d="M26.4861 33.0845C30.1487 33.0845 33.1177 30.1155 33.1177 26.4529C33.1177 22.7904 30.1487 19.8213 26.4861 19.8213C22.8236 19.8213 19.8545 22.7904 19.8545 26.4529C19.8545 30.1155 22.8236 33.0845 26.4861 33.0845Z" fill="white"/>
<path d="M121.9 6.625H86.5667C85.981 6.625 85.4193 6.85766 85.0052 7.27181C84.5911 7.68595 84.3584 8.24765 84.3584 8.83333V44.1667C84.3584 44.7524 84.5911 45.3141 85.0052 45.7282C85.4193 46.1423 85.981 46.375 86.5667 46.375H105.592V31.005H100.428V24.9873H105.592V20.5706C105.592 15.4362 108.727 12.6383 113.321 12.6383C114.864 12.6339 116.41 12.7134 117.947 12.8746V18.2187H114.778C112.287 18.2187 111.801 19.4068 111.801 21.1448V24.9763H117.757L116.984 30.994H111.799V46.375H121.9C122.486 46.375 123.047 46.1423 123.462 45.7282C123.876 45.3141 124.108 44.7524 124.108 44.1667V8.83333C124.108 8.24765 123.876 7.68595 123.462 7.27181C123.047 6.85766 122.486 6.625 121.9 6.625Z" fill="white"/>
<path d="M199.633 6.625H164.3C163.714 6.625 163.153 6.85766 162.739 7.27181C162.324 7.68595 162.092 8.24765 162.092 8.83333V44.1667C162.092 44.7524 162.324 45.3141 162.739 45.7282C163.153 46.1423 163.714 46.375 164.3 46.375H199.633C200.219 46.375 200.781 46.1423 201.195 45.7282C201.609 45.3141 201.842 44.7524 201.842 44.1667V8.83333C201.842 8.24765 201.609 7.68595 201.195 7.27181C200.781 6.85766 200.219 6.625 199.633 6.625ZM173.882 40.4942H167.981V21.5246H173.882V40.4942ZM170.932 18.9343C170.025 18.9343 169.156 18.5741 168.515 17.933C167.873 17.2919 167.513 16.4224 167.513 15.5157C167.513 14.6091 167.873 13.7396 168.515 13.0985C169.156 12.4574 170.025 12.0973 170.932 12.0973C171.838 12.0973 172.708 12.4574 173.349 13.0985C173.99 13.7396 174.35 14.6091 174.35 15.5157C174.35 16.4224 173.99 17.2919 173.349 17.933C172.708 18.5741 171.838 18.9343 170.932 18.9343ZM195.963 40.4942H190.069V31.27C190.069 29.0705 190.029 26.2416 187.004 26.2416C183.934 26.2416 183.468 28.6399 183.468 31.1154V40.4964H177.579V21.5268H183.232V24.1194H183.314C184.098 22.6288 186.024 21.0565 188.888 21.0565C194.859 21.0565 195.961 24.9829 195.961 30.093L195.963 40.4942Z" fill="white"/>
</svg>
